<svg xmlns="http://www.w3.org/2000/svg" viewBox="0 0 339.98 151.43"><defs><style>.cls-1{fill:#dbecd9;}.cls-2{fill:#ef7c2a;}</style></defs><g id="Ebene_2" data-name="Ebene 2"><g id="Ebene_1-2" data-name="Ebene 1"><path class="cls-1" d="M14.88,106.51H0V44H14.88V64.75c3.39-3.65,6.78-5.92,12.7-5.92,9.22,0,15.75,6.18,15.75,17.58v30.1H28.45V81.37c0-5.92-2.09-9.14-6.61-9.14-3.66,0-7,2.61-7,9.66Z"/><path class="cls-1" d="M48.37,83c0-14,10.09-24.19,24-24.19,15.48,0,25.84,12.62,23.14,28H63.77q1.17,8.88,8.35,8.87c4.18,0,7-1.74,8.27-5.13H95.27c-2.87,10.7-11.14,16.71-22.8,16.71C58,107.3,48.37,97.55,48.37,83ZM64,77.54H79.61c-.18-4.7-3.14-7.74-7.57-7.74S65,72.32,64,77.54Z"/><path class="cls-1" d="M128.85,102c-3.31,3.74-7.4,5.39-13.4,5.39-9.75,0-16.27-5.83-16.27-14.7,0-9.14,7.39-14.1,20.79-14.1a40.77,40.77,0,0,1,6.88.53V76.84c0-4.09-2.35-6.35-6.53-6.35s-6.52,2.26-7,6.35H99.87c.87-10.87,9-18,20.54-18,12.87,0,20.44,7,20.44,18.8v28.88h-12Zm-9.92-4.87c5,0,7.92-2.35,7.92-6.18V88a30.2,30.2,0,0,0-5.92-.61c-5.05,0-7.74,1.66-7.74,4.87C113.19,95.29,115.27,97.12,118.93,97.12Z"/><path class="cls-1" d="M163.73,106.51H148.85V59.7h13.67V68c3.56-5.48,11-8.61,18.44-8.61V74.84c-10.53-1-17.23-.26-17.23,10.1Z"/><path class="cls-1" d="M304.74,83.83l-7.22,26.53H282.64L269.5,63.56H284l6.53,25.66,6.87-25.66h14.88l6.53,25.66,6.52-25.66H340l-13.23,46.8H312Z"/><g id="Gruppe_7" data-name="Gruppe 7"><path id="Pfad_8" data-name="Pfad 8" class="cls-1" d="M225.43,30.4a36.73,36.73,0,0,0-35.6,46.42,35.57,35.57,0,0,0,2.54,6.69A37.16,37.16,0,0,0,259,82.46a35.15,35.15,0,0,0,2-5.64,36.74,36.74,0,0,0-35.6-46.42m21,42.4a21.55,21.55,0,0,1-1.2,3.32,21,21,0,0,1-2,3.47A21.92,21.92,0,0,1,206,76.74a20.6,20.6,0,0,1-1.49-3.94,21.65,21.65,0,0,1,20.59-27.33h.37a21.46,21.46,0,0,1,21.72,21.21c0,.12,0,.24,0,.36a22,22,0,0,1-.77,5.76"/><path id="Pfad_9" data-name="Pfad 9" class="cls-2" d="M255.59,99.1l-30.21,52.33L194.59,98.11a37.32,37.32,0,0,0,61,1"/><path id="Pfad_10" data-name="Pfad 10" class="cls-2" d="M242.8,16.57a47.93,47.93,0,0,0-48.66,9.89l1.47,6.62a43,43,0,0,1,74.16,25.58l5.23-4.3a47.94,47.94,0,0,0-32.2-37.79"/><path id="Pfad_11" data-name="Pfad 11" class="cls-2" d="M247.3,3.57a61.87,61.87,0,0,0-56.52,7.76l1.35,6.1a56.16,56.16,0,0,1,53.32-8.5c19.11,6.6,32.3,21.75,36.69,39.57l4.84-4a61.87,61.87,0,0,0-39.68-41"/></g></g></g></svg>