<?xml version="1.0" encoding="UTF-8"?>
<svg id="Ebene_1" xmlns="http://www.w3.org/2000/svg" viewBox="0 0 520 309">
    <defs>
        <style>.cls-1{fill:#dafbde;}.cls-1,.cls-2{stroke-width:0px;}.cls-2{fill:#fc7d22;}</style>
    </defs>
    <path class="cls-1"
          d="m255.85205,229.73391c-4.91855,2.71841-9.57859,3.75369-15.79155,3.75369-15.66198,0-24.8525-9.31945-24.8525-25.24057v-26.40574h-12.94421v-19.28643h12.94421v-20.45159h22.13409v20.45159h19.0276v19.28643h-19.0276v21.22806c0,6.73061,2.84798,9.83772,8.93138,9.83772,3.62476,0,7.11931-.90635,9.57859-2.4599v19.28674Z"/>
    <path class="cls-1"
          d="m260.51335,197.37402c0-19.93364,15.79155-36.11358,36.37208-36.11358s36.37271,16.17994,36.37271,36.11358-15.79155,36.11358-36.37271,36.11358-36.37208-16.17963-36.37208-36.11358Zm49.70499,0c0-10.87301-6.4721-16.17994-13.33291-16.17994-6.86018,0-13.33228,5.30694-13.33228,16.17994s6.4721,16.30919,13.33228,16.30919c6.86081,0,13.33291-5.43619,13.33291-16.30919Z"/>
    <path class="cls-1"
          d="m365.48846,232.19318h-22.13409v-69.63831h20.32202v8.41342c5.43619-6.08371,11.90829-9.70784,20.7101-9.70784,13.72099,0,23.42851,9.1902,23.42851,26.14692v44.78582h-22.13409v-37.408c0-8.80181-3.10648-13.5911-9.83709-13.5911-5.43682,0-10.35537,3.88326-10.35537,14.36788v36.63122Z"/>
    <path class="cls-1"
          d="m432.5392,158.93042c-8.41373,0-14.23863-5.30694-14.23863-12.55582,0-7.37813,5.82489-12.68507,14.23863-12.68507,8.4131,0,14.23799,5.30694,14.23799,12.68507,0,7.24888-5.82489,12.55582-14.23799,12.55582Zm-10.87301,73.26275v-69.63831h22.13409v69.63831h-22.13409Z"/>
    <path class="cls-1"
          d="m130.14468,84.60544c-32.21282,0-56.92187,25.32105-56.92187,56.51941,0,5.22521.68423,10.28129,2.00474,15.07986.9661,3.59886,2.28641,7.05285,3.92083,10.32158,1.02252,2.05299,2.16592,4.04171,3.42981,5.94984,10.04787,15.16841,27.32569,25.16803,47.56649,25.16803,19.54831,0,36.34318-9.3314,46.5198-23.64644,2.0128-2.842,3.77596-5.87731,5.24939-9.08973,1.28807-2.78578,2.33477-5.69215,3.14794-8.70329,1.32051-4.79858,2.00474-9.85465,2.00474-15.07986,0-31.19836-24.71711-56.51941-56.92187-56.51941Zm32.33233,65.39754c-.47883,1.77279-1.09505,3.48397-1.85339,5.12408-.86743,1.89132-1.90547,3.67837-3.09055,5.35151-5.99141,8.428-15.87928,13.92182-27.38839,13.92182-11.91678,0-22.08888-5.88724-28.00462-14.81755-.74418-1.12345-1.41721-2.29427-2.01928-3.50294-.96217-1.92454-1.73958-3.95798-2.30843-6.07692-.7774-2.82509-1.18016-5.80183-1.18016-8.87813,0-18.36796,14.54738-33.27563,33.51249-33.27563,18.9604,0,33.51249,14.90767,33.51249,33.27563,0,3.0763-.40276,6.05304-1.18016,8.87813Z"/>
    <path class="cls-2"
          d="m176.66528,190.57151l-46.60264,80.71687-47.48446-82.24634c10.04824,15.17301,27.32813,25.17019,47.56557,25.17019,19.5485,0,36.34222-9.32864,46.52153-23.64072Z"/>
    <path class="cls-2"
          d="m156.95143,63.26932c-27.36259-9.44776-55.70388-2.76382-75.07576,15.25846l2.27111,10.20292c17.04154-18.66817,43.99237-26.14967,69.94793-17.18774,25.94344,8.95775,42.52857,31.45811,44.44157,56.6445l8.06689-6.62026c-4.1298-26.1237-22.31339-48.8585-49.65174-58.29789Z"/>
    <path class="cls-2"
          d="m163.87693,43.21167c-30.99097-10.70056-62.97671-5.30146-87.18488,11.97696l2.09388,9.41417c22.29988-17.46111,52.75595-23.29576,82.23428-13.11749,29.46563,10.17389,49.82593,33.54118,56.60563,61.02964l7.45636-6.11666c-8.39417-28.52212-30.21488-52.48627-61.20527-63.18663Z"/>
</svg>